<mxfile host="app.diagrams.net" agent="Mozilla/5.0 (Windows NT 10.0; Win64; x64) AppleWebKit/537.36 (KHTML, like Gecko) Chrome/128.0.0.0 Safari/537.36" version="24.7.14">
  <diagram name="Halaman-1" id="pVUlKHfLhXbU80o2n0Ox">
    <mxGraphModel dx="2535" dy="671" grid="1" gridSize="10" guides="1" tooltips="1" connect="1" arrows="1" fold="1" page="1" pageScale="1" pageWidth="1200" pageHeight="1600" math="0" shadow="0">
      <root>
        <mxCell id="0" />
        <mxCell id="1" parent="0" />
        <mxCell id="xL29R7rMxO9o7-skXsGF-4" value="" style="edgeStyle=orthogonalEdgeStyle;rounded=0;orthogonalLoop=1;jettySize=auto;html=1;" edge="1" parent="1" source="xL29R7rMxO9o7-skXsGF-2" target="xL29R7rMxO9o7-skXsGF-3">
          <mxGeometry relative="1" as="geometry" />
        </mxCell>
        <mxCell id="xL29R7rMxO9o7-skXsGF-2" value="mulai" style="strokeWidth=2;html=1;shape=mxgraph.flowchart.start_1;whiteSpace=wrap;" vertex="1" parent="1">
          <mxGeometry x="10" y="70" width="100" height="60" as="geometry" />
        </mxCell>
        <mxCell id="xL29R7rMxO9o7-skXsGF-6" value="" style="edgeStyle=orthogonalEdgeStyle;rounded=0;orthogonalLoop=1;jettySize=auto;html=1;" edge="1" parent="1" source="xL29R7rMxO9o7-skXsGF-3" target="xL29R7rMxO9o7-skXsGF-5">
          <mxGeometry relative="1" as="geometry" />
        </mxCell>
        <mxCell id="xL29R7rMxO9o7-skXsGF-3" value="Masukkan alas dan tinggi&lt;div&gt;segitiga&lt;/div&gt;" style="shape=parallelogram;html=1;strokeWidth=2;perimeter=parallelogramPerimeter;whiteSpace=wrap;rounded=1;arcSize=12;size=0.23;" vertex="1" parent="1">
          <mxGeometry x="130" y="70" width="215" height="60" as="geometry" />
        </mxCell>
        <mxCell id="xL29R7rMxO9o7-skXsGF-8" value="" style="edgeStyle=orthogonalEdgeStyle;rounded=0;orthogonalLoop=1;jettySize=auto;html=1;" edge="1" parent="1" source="xL29R7rMxO9o7-skXsGF-5" target="xL29R7rMxO9o7-skXsGF-7">
          <mxGeometry relative="1" as="geometry" />
        </mxCell>
        <mxCell id="xL29R7rMxO9o7-skXsGF-5" value="luas = alas * tinggi/2" style="rounded=1;whiteSpace=wrap;html=1;absoluteArcSize=1;arcSize=14;strokeWidth=2;" vertex="1" parent="1">
          <mxGeometry x="390" y="65" width="190" height="70" as="geometry" />
        </mxCell>
        <mxCell id="xL29R7rMxO9o7-skXsGF-10" value="" style="edgeStyle=orthogonalEdgeStyle;rounded=0;orthogonalLoop=1;jettySize=auto;html=1;" edge="1" parent="1" source="xL29R7rMxO9o7-skXsGF-7" target="xL29R7rMxO9o7-skXsGF-9">
          <mxGeometry relative="1" as="geometry" />
        </mxCell>
        <mxCell id="xL29R7rMxO9o7-skXsGF-7" value="menghasilkan hasil&lt;div&gt;perhitungan luas segitiga&lt;/div&gt;" style="shape=parallelogram;html=1;strokeWidth=2;perimeter=parallelogramPerimeter;whiteSpace=wrap;rounded=1;arcSize=12;size=0.23;" vertex="1" parent="1">
          <mxGeometry x="630" y="70" width="180" height="60" as="geometry" />
        </mxCell>
        <mxCell id="xL29R7rMxO9o7-skXsGF-9" value="selesai" style="strokeWidth=2;html=1;shape=mxgraph.flowchart.start_1;whiteSpace=wrap;" vertex="1" parent="1">
          <mxGeometry x="890" y="70" width="100" height="60" as="geometry" />
        </mxCell>
        <mxCell id="xL29R7rMxO9o7-skXsGF-13" value="" style="edgeStyle=orthogonalEdgeStyle;rounded=0;orthogonalLoop=1;jettySize=auto;html=1;" edge="1" parent="1" source="xL29R7rMxO9o7-skXsGF-11" target="xL29R7rMxO9o7-skXsGF-12">
          <mxGeometry relative="1" as="geometry" />
        </mxCell>
        <mxCell id="xL29R7rMxO9o7-skXsGF-11" value="Mulai" style="strokeWidth=2;html=1;shape=mxgraph.flowchart.start_1;whiteSpace=wrap;" vertex="1" parent="1">
          <mxGeometry x="-10" y="150" width="100" height="60" as="geometry" />
        </mxCell>
        <mxCell id="xL29R7rMxO9o7-skXsGF-15" value="n" style="edgeStyle=orthogonalEdgeStyle;rounded=0;orthogonalLoop=1;jettySize=auto;html=1;" edge="1" parent="1" source="xL29R7rMxO9o7-skXsGF-12" target="xL29R7rMxO9o7-skXsGF-14">
          <mxGeometry relative="1" as="geometry" />
        </mxCell>
        <mxCell id="xL29R7rMxO9o7-skXsGF-12" value="masukkan angka" style="shape=parallelogram;html=1;strokeWidth=2;perimeter=parallelogramPerimeter;whiteSpace=wrap;rounded=1;arcSize=12;size=0.23;" vertex="1" parent="1">
          <mxGeometry x="-25" y="260" width="130" height="60" as="geometry" />
        </mxCell>
        <mxCell id="xL29R7rMxO9o7-skXsGF-31" value="" style="edgeStyle=orthogonalEdgeStyle;rounded=0;orthogonalLoop=1;jettySize=auto;html=1;" edge="1" parent="1" source="xL29R7rMxO9o7-skXsGF-14" target="xL29R7rMxO9o7-skXsGF-19">
          <mxGeometry relative="1" as="geometry" />
        </mxCell>
        <mxCell id="xL29R7rMxO9o7-skXsGF-14" value="angka %2&amp;nbsp;" style="rounded=1;whiteSpace=wrap;html=1;absoluteArcSize=1;arcSize=14;strokeWidth=2;" vertex="1" parent="1">
          <mxGeometry x="-10" y="370" width="100" height="100" as="geometry" />
        </mxCell>
        <mxCell id="xL29R7rMxO9o7-skXsGF-32" value="" style="edgeStyle=orthogonalEdgeStyle;rounded=0;orthogonalLoop=1;jettySize=auto;html=1;" edge="1" parent="1" source="xL29R7rMxO9o7-skXsGF-19" target="xL29R7rMxO9o7-skXsGF-21">
          <mxGeometry relative="1" as="geometry" />
        </mxCell>
        <mxCell id="xL29R7rMxO9o7-skXsGF-33" value="" style="edgeStyle=orthogonalEdgeStyle;rounded=0;orthogonalLoop=1;jettySize=auto;html=1;" edge="1" parent="1" source="xL29R7rMxO9o7-skXsGF-19" target="xL29R7rMxO9o7-skXsGF-25">
          <mxGeometry relative="1" as="geometry" />
        </mxCell>
        <mxCell id="xL29R7rMxO9o7-skXsGF-19" value="jika angka = 0" style="strokeWidth=2;html=1;shape=mxgraph.flowchart.decision;whiteSpace=wrap;" vertex="1" parent="1">
          <mxGeometry x="-10" y="510" width="100" height="100" as="geometry" />
        </mxCell>
        <mxCell id="xL29R7rMxO9o7-skXsGF-40" value="" style="edgeStyle=orthogonalEdgeStyle;rounded=0;orthogonalLoop=1;jettySize=auto;html=1;entryX=1;entryY=0.5;entryDx=0;entryDy=0;entryPerimeter=0;exitX=0.451;exitY=1.067;exitDx=0;exitDy=0;exitPerimeter=0;" edge="1" parent="1" source="xL29R7rMxO9o7-skXsGF-21" target="xL29R7rMxO9o7-skXsGF-27">
          <mxGeometry relative="1" as="geometry">
            <mxPoint x="298" y="570" as="sourcePoint" />
            <mxPoint x="99" y="680.02" as="targetPoint" />
            <Array as="points">
              <mxPoint x="238" y="594" />
              <mxPoint x="238" y="660" />
              <mxPoint x="99" y="660" />
              <mxPoint x="99" y="680" />
            </Array>
          </mxGeometry>
        </mxCell>
        <mxCell id="xL29R7rMxO9o7-skXsGF-21" value="menampilkan bilangan ganjil" style="shape=parallelogram;perimeter=parallelogramPerimeter;whiteSpace=wrap;html=1;fixedSize=1;strokeWidth=2;" vertex="1" parent="1">
          <mxGeometry x="177.5" y="530" width="120" height="60" as="geometry" />
        </mxCell>
        <mxCell id="xL29R7rMxO9o7-skXsGF-36" value="" style="edgeStyle=orthogonalEdgeStyle;rounded=0;orthogonalLoop=1;jettySize=auto;html=1;entryX=0.023;entryY=0.633;entryDx=0;entryDy=0;entryPerimeter=0;" edge="1" parent="1" source="xL29R7rMxO9o7-skXsGF-25" target="xL29R7rMxO9o7-skXsGF-27">
          <mxGeometry relative="1" as="geometry">
            <mxPoint x="-170" y="780" as="targetPoint" />
            <Array as="points">
              <mxPoint x="-190" y="778" />
            </Array>
          </mxGeometry>
        </mxCell>
        <mxCell id="xL29R7rMxO9o7-skXsGF-25" value="menampilkan bilangan genap" style="shape=parallelogram;perimeter=parallelogramPerimeter;whiteSpace=wrap;html=1;fixedSize=1;strokeWidth=2;" vertex="1" parent="1">
          <mxGeometry x="-210" y="530" width="120" height="60" as="geometry" />
        </mxCell>
        <mxCell id="xL29R7rMxO9o7-skXsGF-27" value="selesai" style="strokeWidth=2;html=1;shape=mxgraph.flowchart.start_1;whiteSpace=wrap;" vertex="1" parent="1">
          <mxGeometry x="-10" y="650" width="100" height="60" as="geometry" />
        </mxCell>
      </root>
    </mxGraphModel>
  </diagram>
</mxfile>
